<svg width="36" height="36" viewBox="0 0 36 36" fill="none" xmlns="http://www.w3.org/2000/svg">
<path d="M18 8C15.3478 8 12.8043 9.05357 10.9289 10.9289C9.05357 12.8043 8 15.3478 8 18C8 20.6522 9.05357 23.1957 10.9289 25.0711C12.8043 26.9464 15.3478 28 18 28L18 24.8C16.1965 24.8 14.4669 24.0836 13.1917 22.8083C11.9164 21.5331 11.2 19.8035 11.2 18C11.2 16.1965 11.9164 14.4669 13.1917 13.1917C14.4669 11.9164 16.1965 11.2 18 11.2V8Z" fill="#F05454"/>
<path d="M18 28C20.6522 28 23.1957 26.9464 25.0711 25.0711C26.9464 23.1957 28 20.6522 28 18C28 15.3478 26.9464 12.8043 25.0711 10.9289C23.1957 9.05357 20.6522 8 18 8V11.2C19.8035 11.2 21.5331 11.9164 22.8083 13.1917C24.0836 14.4669 24.8 16.1965 24.8 18C24.8 19.8035 24.0836 21.5331 22.8083 22.8083C21.5331 24.0836 19.8035 24.8 18 24.8L18 28Z" fill="#F05454"/>
<path d="M20 11L22.5981 12.5L15.5981 24.6244L13 23.1244L20 11Z" fill="#F05454"/>
</svg>
