<svg width="36" height="36" viewBox="0 0 36 36" fill="none" xmlns="http://www.w3.org/2000/svg">
<path d="M15 17.6874C16.3144 17.6874 17.38 16.6219 17.38 15.3075C17.38 13.993 16.3144 12.9275 15 12.9275C13.6855 12.9275 12.62 13.993 12.62 15.3075C12.62 16.6219 13.6855 17.6874 15 17.6874Z" fill="#F05454"/>
<path d="M22.19 8H13.81C10.17 8 8 10.17 8 13.81V22.19C8 23.28 8.19 24.23 8.56 25.03C9.42 26.93 11.26 28 13.81 28H22.19C25.83 28 28 25.83 28 22.19V13.81C28 10.17 25.83 8 22.19 8ZM25 18C24.22 17.33 24.33 17.83 23.55 18.5L19.39 22.07C18.61 22.74 17.35 22.74 16.57 22.07L16.23 21.79C15.52 21.17 14.39 21.11 13.59 21.65L11 23C10.78 22.44 11 22.41 11 21.65V13.81C11 10.99 10.99 11 13.81 11H22.19C25.01 11 24.5 11.1799 24.5 13.9999V17.6874L25 18Z" fill="#F05454"/>
</svg>
