<svg width="36" height="36" viewBox="0 0 36 36" fill="none" xmlns="http://www.w3.org/2000/svg">
<path d="M20.4052 9.77803L20.8349 8.81139C20.9643 8.52026 20.8331 8.17928 20.542 8.04991C20.2508 7.92045 19.9099 8.05162 19.7805 8.3428L19.1635 9.73092H16.8365L16.2195 8.34276C16.0901 8.05162 15.7491 7.92045 15.458 8.04987C15.1669 8.17924 15.0357 8.52022 15.1651 8.81135L15.5947 9.77799C14.4463 10.0034 13.577 11.0173 13.577 12.2308V13.1924H22.4231V12.2308C22.423 11.0174 21.5537 10.0034 20.4052 9.77803Z" fill="#F05454"/>
<path d="M27.423 18.1924H23.9614V16.9928C25.703 16.7154 27.0383 15.2031 27.0383 13.3847V12.6155C27.0383 12.2969 26.78 12.0386 26.4614 12.0386C26.1428 12.0386 25.8845 12.2969 25.8845 12.6155V13.3847C25.8845 14.5646 25.0626 15.5555 23.9615 15.8168V15.3078C23.9615 14.7776 23.5301 14.3463 22.9999 14.3463H18.5769V21.077C18.5769 21.3956 18.3186 21.6539 18 21.6539C17.6813 21.6539 17.4231 21.3956 17.4231 21.077V14.3462H13C12.4698 14.3462 12.0385 14.7776 12.0385 15.3078V15.8167C10.9373 15.5555 10.1154 14.5646 10.1154 13.3847V12.6154C10.1154 12.2969 9.85711 12.0385 9.53852 12.0385C9.21992 12.0385 8.9616 12.2969 8.9616 12.6154V13.3847C8.9616 15.2031 10.297 16.7153 12.0385 16.9928V18.1923H8.57691C8.25832 18.1923 8 18.4507 8 18.7692C8 19.0878 8.25832 19.3462 8.57691 19.3462H12.0384V20.5457C10.2969 20.8231 8.96152 22.3354 8.96152 24.1538V24.923C8.96152 25.2416 9.21985 25.5 9.53844 25.5C9.85703 25.5 10.1154 25.2416 10.1154 24.923V24.1538C10.1154 22.9739 10.9372 21.983 12.0384 21.7217V22.0384C12.0384 25.3257 14.7128 28 17.9999 28C21.2871 28 23.9614 25.3257 23.9614 22.0385V21.7218C25.0626 21.9831 25.8845 22.974 25.8845 24.1539V24.9231C25.8845 25.2417 26.1428 25.5 26.4614 25.5C26.78 25.5 27.0383 25.2417 27.0383 24.9231V24.1539C27.0383 22.3355 25.7029 20.8232 23.9614 20.5458V19.3462H27.4229C27.7415 19.3462 27.9998 19.0879 27.9998 18.7693C27.9998 18.4507 27.7415 18.1924 27.423 18.1924Z" fill="#F05454"/>
</svg>
