<svg width="16" height="17" viewBox="0 0 16 17" fill="none" xmlns="http://www.w3.org/2000/svg">
<path d="M8 16.3281C12.3594 16.3281 15.9688 12.7109 15.9688 8.35938C15.9688 4 12.3516 0.390625 7.99219 0.390625C3.64062 0.390625 0.03125 4 0.03125 8.35938C0.03125 12.7109 3.64844 16.3281 8 16.3281ZM8 15C4.3125 15 1.36719 12.0469 1.36719 8.35938C1.36719 4.67188 4.30469 1.71875 7.99219 1.71875C11.6797 1.71875 14.6328 4.67188 14.6406 8.35938C14.6484 12.0469 11.6875 15 8 15ZM7.83594 9.97656C8.22656 9.97656 8.46875 9.72656 8.46875 9.42188V9.32812C8.46875 8.89062 8.71875 8.60938 9.26562 8.25C10.0234 7.75 10.5625 7.29688 10.5625 6.35938C10.5625 5.0625 9.40625 4.35938 8.07812 4.35938C6.73438 4.35938 5.85156 5 5.64062 5.71875C5.60156 5.84375 5.57812 5.96875 5.57812 6.10156C5.57812 6.45312 5.85156 6.64062 6.10938 6.64062C6.375 6.64062 6.54688 6.51562 6.6875 6.32812L6.82812 6.14062C7.10156 5.6875 7.50781 5.42188 8.03125 5.42188C8.74219 5.42188 9.20312 5.82812 9.20312 6.42188C9.20312 6.95312 8.875 7.21094 8.19531 7.6875C7.63281 8.07812 7.21094 8.49219 7.21094 9.25781V9.35938C7.21094 9.76562 7.4375 9.97656 7.83594 9.97656ZM7.82031 12.3047C8.27344 12.3047 8.66406 11.9453 8.66406 11.4922C8.66406 11.0391 8.28125 10.6797 7.82031 10.6797C7.35938 10.6797 6.97656 11.0469 6.97656 11.4922C6.97656 11.9375 7.36719 12.3047 7.82031 12.3047Z" fill="#A1A1A1"/>
</svg>
