<svg width="36" height="36" viewBox="0 0 36 36" fill="none" xmlns="http://www.w3.org/2000/svg">
<path d="M12 15.33V20.67C12 23.99 14.35 25.34 17.22 23.69L18.5 22.95C18.81 22.77 19 22.44 19 22.08V13.92C19 13.56 18.81 13.23 18.5 13.05L17.22 12.31C14.35 10.66 12 12.01 12 15.33Z" fill="#F05454"/>
<path d="M20 14.79V21.22C20 21.6026 20.4041 21.8408 20.731 21.661C20.7374 21.6575 20.7437 21.6539 20.75 21.65L21.85 21.01C24.72 19.36 24.72 16.64 21.85 14.99L20.75 14.35C20.42 14.16 20 14.4 20 14.79Z" fill="#F05454"/>
<path d="M19 22.08C19 22.44 18.81 22.77 18.5 22.95L20.731 21.661C20.4041 21.8408 20 21.6026 20 21.22V14.79C20 14.4 20.42 14.16 20.75 14.35L18.5 13.05C18.81 13.23 19 13.56 19 13.92V22.08Z" fill="#F05454"/>
</svg>
